<svg xmlns="http://www.w3.org/2000/svg" width="1792" height="517" fill="none" viewBox="0 0 1792 517">
  <path fill="#819AF0" d="M260.926 128.675c.044.184.07.389.07.569V159.3a2.171 2.171 0 0 1-1.093 1.89l-25.227 14.538v28.779a2.171 2.171 0 0 1-1.093 1.89l-52.658 30.306a1.705 1.705 0 0 1-.389.157l-.136.07a2.287 2.287 0 0 1-1.115 0 .64.64 0 0 1-.158-.07 1.852 1.852 0 0 1-.363-.157l-52.636-30.306a2.193 2.193 0 0 1-1.115-1.89v-90.164c0-.184.043-.39.092-.569.021-.07.043-.114.07-.184l.135-.341c.022-.07.092-.114.136-.184l.205-.276a1.26 1.26 0 0 0 .206-.157c.092-.07.158-.136.249-.184l26.32-15.155a2.196 2.196 0 0 1 2.188 0l26.342 15.155c.092.044.157.114.227.184l.228.157c.067.088.128.18.184.276.043.044.113.114.157.184l.136.341c.022.07.07.114.07.184.066.182.097.375.092.569v56.306l21.918-12.622v-28.779c.009-.258.063-.513.162-.752l.136-.342c.044-.091.114-.135.157-.205.07-.092.114-.184.184-.25.07-.065.158-.113.228-.157a.917.917 0 0 1 .227-.184l26.342-15.155a2.092 2.092 0 0 1 2.187 0l26.32 15.155c.092.044.158.114.25.184.07.044.135.092.205.157.07.066.136.158.206.25.044.07.114.114.136.205.07.114.092.228.135.342.044.043.07.113.092.183l-.009-.004Zm-4.331 29.348V133.05l-9.205 5.285-12.714 7.337v24.972l21.919-12.621Zm-26.294 45.206v-24.998l-12.534 7.131-35.731 20.418v25.226l48.265-27.777Z"/>
  <path fill="#fff" d="M129.379 118.144v85.085l48.261 27.777V205.78l-25.227-14.289c-.092-.043-.157-.113-.227-.183-.07-.044-.158-.092-.206-.158h-.022c-.07-.07-.113-.157-.183-.227-.044-.07-.114-.136-.158-.228a1.058 1.058 0 0 1-.114-.276c-.043-.091-.092-.157-.113-.249a1.404 1.404 0 0 1-.044-.319c-.022-.092-.044-.158-.044-.25v-58.835l-12.714-7.337-9.209-5.285Zm24.132-16.428-21.918 12.622 21.918 12.622 21.919-12.622-21.919-12.622Zm11.415 78.798 12.714-7.336v-55.029l-9.205 5.285-12.736 7.337v55.028l9.227-5.285Zm67.563-63.897-21.945 12.622 21.945 12.622 21.919-12.622-21.919-12.622Zm-2.188 29.055-21.945-12.622v24.972l12.714 7.337 9.227 5.285.004-24.972Z"/>
  <path fill="#fff" d="m179.831 201.978 48.239-27.527-21.897-12.622-48.217 27.755 21.875 12.394Z"/>
  <g opacity=".75">
    <path fill="#5779EB" d="M1115.5 129.083c-39.25 0-70 16.654-70 37.917 0 21.262 30.75 37.917 70 37.917s70-16.655 70-37.917c0-21.263-30.75-37.917-70-37.917Zm-7.27 11.667h7.64l-2.42 11.667h6.82c4.33 0 7.24.606 8.89 2.117 1.62 1.493 2.11 3.943 1.46 7.28l-3.03 13.936h-7.77l2.79-12.886c.34-1.767.21-2.998-.39-3.646-.59-.647-1.89-.968-3.84-.968h-6.12l-3.69 17.5h-7.65l7.31-35Z"/>
    <path fill="#fff" d="M1074.67 152.417h15.55c7.41 0 11.9 4.97 10.15 12.384-2.04 8.616-7.5 10.949-17.56 10.949H1078l-1.52 8.75h-7.73l5.92-32.083Zm61.25 0h15.55c7.41 0 11.9 4.97 10.15 12.384-2.04 8.616-7.51 10.949-17.56 10.949h-4.81l-1.52 8.75H1130l5.92-32.083Zm-54.63 5.833-2.2 11.667h4.99c4.31 0 8.33-.49 9-6.93.25-2.491-.79-4.737-5.78-4.737h-6.01Zm61.25 0-2.2 11.667h4.99c4.31 0 8.33-.49 9-6.93.25-2.491-.79-4.737-5.78-4.737h-6.01Z"/>
    <path fill="#5779EB" d="M943.998 108.667H920l-17.5 28.583-14.997-28.583H832.5l70 122.5 70-122.5h-28.502Z"/>
    <path fill="#fff" d="M850 118.875h16.998l35.502 63.292 35.502-63.292H955l-52.5 91.875-52.5-91.875Z"/>
    <g clip-path="url(#a)">
      <path fill="#5779EB" d="M1651.5 97h-110c-8.28 0-15 6.719-15 15v110c0 8.281 6.72 15 15 15h110c8.28 0 15-6.719 15-15V112c0-8.281-6.72-15-15-15Z"/>
      <path fill="#fff" d="M1602.69 201.289c0 11.922-8 17.363-19.66 17.363-10.53 0-16.62-4.757-19.75-10.527l10.72-5.66c2.06 3.199 3.94 5.906 8.47 5.906 4.31 0 7.06-1.476 7.06-7.246v-39.129h13.16v39.293Zm31.12 17.363c-12.22 0-20.12-5.086-23.97-11.757l10.72-5.415c2.82 4.02 6.5 7 12.97 7 5.44 0 8.94-2.378 8.94-5.687 0-3.938-3.56-5.332-9.6-7.656l-3.28-1.231c-9.5-3.527-15.78-7.984-15.78-17.363 0-8.641 7.53-15.203 19.25-15.203 8.38 0 14.38 2.543 18.69 9.215l-10.25 5.742c-2.25-3.527-4.69-4.922-8.47-4.922-3.84 0-6.28 2.133-6.28 4.922 0 3.445 2.44 4.84 8.09 7l3.29 1.23c11.18 4.184 17.46 8.477 17.46 18.102 0 10.336-9.31 16.023-21.78 16.023Z"/>
    </g>
    <path fill="#5779EB" d="M672.455 120.129c-3.43 0-6.866 1.686-8.832 5.058l-42.747 73.505c-3.92 6.744.992 15.173 8.832 15.173h33.367a9.778 9.778 0 0 1-2.042-12.349l32.358-55.493-12.11-20.836a10.115 10.115 0 0 0-8.826-5.058Zm43.207 17.045c-2.841 0-5.676 1.377-7.303 4.136l-35.368 60.142c-3.249 5.512.805 12.425 7.298 12.425h70.758c6.499 0 10.559-6.913 7.309-12.425l-35.39-60.142a8.382 8.382 0 0 0-7.304-4.142v.006ZM491.5 167c0 38.671-31.329 70-70 70s-70-31.329-70-70 31.329-70 70-70 70 31.329 70 70Z"/>
    <path fill="#fff" d="M452.103 122.887c-7.109.245-13.304 4.165-17.933 9.59-5.127 5.95-8.522 13.007-10.986 20.191-4.375-3.575-7.748-8.247-14.787-10.277a18.151 18.151 0 0 0-16.428 3.01 14.722 14.722 0 0 0-5.018 7.315c-2.096 6.86 2.235 12.985 4.195 15.172l4.305 4.603c.871.892 3.032 3.259 1.96 6.632-1.115 3.693-5.534 6.06-10.093 4.673-2.03-.617-4.948-2.14-4.287-4.266.275-.888.892-1.522 1.229-2.275.298-.643.455-1.142.547-1.413.822-2.713-.298-6.248-3.216-7.136-2.712-.844-5.464-.179-6.562 3.303-1.208 3.969.682 11.148 10.85 14.294 11.917 3.644 21.962-2.831 23.397-11.284.893-5.285-1.505-9.226-5.88-14.262l-3.574-3.968c-2.166-2.14-2.892-5.832-.661-8.658 1.89-2.398 4.581-3.395 8.978-2.21 6.444 1.755 9.297 6.195 14.083 9.796-1.982 6.475-3.286 12.967-4.445 18.799l-.704 4.353c-3.417 17.907-6.016 27.755-12.806 33.408-1.369.958-3.325 2.415-6.243 2.524-1.553.022-2.078-1.019-2.078-1.5-.048-1.072.87-1.575 1.483-2.052.888-.477 2.279-1.326 2.165-3.942-.091-3.098-2.664-5.788-6.383-5.67-2.778.087-7.017 2.708-6.855 7.494.157 4.966 4.782 8.68 11.729 8.431 3.741-.118 12.036-1.641 20.213-11.371 9.524-11.143 12.193-23.927 14.196-33.289l2.236-12.333c1.247.14 2.573.232 4.029.275 11.848.25 17.776-5.897 17.864-10.364.07-2.712-1.772-5.377-4.327-5.307a4.973 4.973 0 0 0-4.712 3.828c-.547 2.485 3.78 4.743.407 6.93-2.393 1.545-6.698 2.643-12.74 1.75l1.098-6.085c2.257-11.528 5.009-25.703 15.518-26.04.774-.048 3.574.017 3.622 1.868.022.612-.109.8-.84 2.187a4.897 4.897 0 0 0-.98 3.146c.088 2.94 2.324 4.878 5.583 4.76 4.327-.136 5.561-4.375 5.512-6.541-.179-5.105-5.56-8.295-12.67-8.085l.009-.004Z"/>
    <path fill="#5779EB" d="M1367.19 152.475a24.736 24.736 0 0 1-11.22-7.817 33.953 33.953 0 0 0-12.01-9.432A34.079 34.079 0 0 0 1329 132a27.86 27.86 0 0 0-19.28 5.965 27.49 27.49 0 0 0-10.1 17.368 19.021 19.021 0 0 1 8.86-7.67 19.11 19.11 0 0 1 11.71-1.021 25.36 25.36 0 0 1 11.22 7.875 33.863 33.863 0 0 0 12.03 9.336 34.105 34.105 0 0 0 14.94 3.147 27.876 27.876 0 0 0 19.28-5.965 27.52 27.52 0 0 0 10.09-17.368 18.72 18.72 0 0 1-8.82 7.775 18.897 18.897 0 0 1-11.74 1.033Zm-76.38 29.05a24.736 24.736 0 0 1 11.22 7.817 33.953 33.953 0 0 0 12.01 9.432A34.093 34.093 0 0 0 1329 202a27.86 27.86 0 0 0 19.28-5.965 27.49 27.49 0 0 0 10.1-17.368 19.021 19.021 0 0 1-8.86 7.67 19.11 19.11 0 0 1-11.71 1.021 25.36 25.36 0 0 1-11.22-7.875 34.04 34.04 0 0 0-12.04-9.318 34.277 34.277 0 0 0-14.93-3.165 27.876 27.876 0 0 0-19.28 5.965 27.52 27.52 0 0 0-10.09 17.368 18.727 18.727 0 0 1 8.82-7.776 18.904 18.904 0 0 1 11.74-1.032Z"/>
  </g>
  <g opacity=".75">
    <path fill="#5779EB" fill-rule="evenodd" d="M793.003 312.529h-24.36v34.604a42.028 42.028 0 0 0-10.593-1.167c-25.457-.006-41.883 15.009-41.883 38.156 0 24.021 15.487 36.534 45.237 36.563 9.934 0 19.122-.875 31.599-3.092V312.529Z" clip-rule="evenodd"/>
    <path fill="#fff" fill-rule="evenodd" d="M761.282 364.895c3.01 0 5.367.292 8.213 1.167v36.446c-3.476.438-5.67.584-8.365.584-12.483 0-19.279-6.662-19.279-18.725 0-12.396 7.117-19.472 19.431-19.472Z" clip-rule="evenodd"/>
    <path fill="#5779EB" d="M832.833 401.388v-52.605h-24.325v44.771c0 19.758-1.096 27.265-4.579 33.752-3.325 6.341-8.528 10.5-19.279 15.202l22.604 10.021c10.751-5.028 15.954-9.584 19.903-16.8 4.235-7.513 5.676-16.228 5.676-34.341Zm-2.427-88.859h-24.348v23.293h24.354v-23.293h-.006Z"/>
  </g>
  <g opacity=".75">
    <path fill="#5779EB" d="M1041 312.529c-35.55 0-33.33 15.494-33.33 15.494l.04 16.053h33.91v4.818h-47.37s-22.75-2.596-22.75 33.454 19.851 34.767 19.851 34.767h11.839v-16.724s-.63-19.95 19.54-19.95h33.64s18.9.303 18.9-18.363v-30.87s2.86-18.679-34.28-18.679h.01Z"/>
    <path fill="#fff" d="M1022.3 323.321c3.37 0 6.1 2.742 6.1 6.137 0 3.389-2.73 6.131-6.1 6.131-3.38 0-6.11-2.742-6.11-6.131 0-3.395 2.73-6.137 6.11-6.137Z"/>
    <path fill="#5779EB" d="M1042.01 452.529c35.53 0 33.32-15.493 33.32-15.493l-.04-16.053h-33.92v-4.819h47.39s22.75 2.596 22.75-33.454-19.86-34.767-19.86-34.767h-11.84v16.725s.63 19.95-19.54 19.95h-33.63s-18.9-.304-18.9 18.363v30.87s-2.87 18.678 34.27 18.678Zm18.7-10.791c-3.38 0-6.1-2.742-6.1-6.137 0-3.389 2.72-6.131 6.1-6.131 3.37 0 6.1 2.742 6.1 6.131 0 3.395-2.73 6.137-6.1 6.137Z"/>
  </g>
  <path fill="#518FE8" d="M867.489 272.828v2.636h-9.351v-2.636h9.351Zm-8.435-7.337v17.774h-3.357v-17.774h3.357Zm10.925 0v17.774h-3.357v-17.774h3.357Zm10.681 0v17.774h-3.345v-17.774h3.345Zm5.518 0v2.649h-14.319v-2.649h14.319Zm3.698 0h2.906l4.858 13.379 4.846-13.379h2.918l-6.604 17.774h-2.332l-6.592-17.774Zm-1.464 0h2.844l.513 12.293v5.481h-3.357v-17.774Zm15.6 0h2.857v17.774h-3.357v-5.481l.5-12.293Zm17.554 15.137v2.637h-8.936v-2.637h8.936Zm-7.922-15.137v17.774h-3.357v-17.774h3.357Zm12.951 9.595-2.575-.623.988-8.972h9.778v2.674h-7.104l-.464 4.15c.252-.155.618-.309 1.098-.464a5.194 5.194 0 0 1 1.648-.244c.847 0 1.604.138 2.271.415a4.544 4.544 0 0 1 1.697 1.172c.472.513.826 1.139 1.062 1.88.244.732.366 1.562.366 2.49 0 .814-.122 1.579-.366 2.295a5.407 5.407 0 0 1-1.087 1.892c-.488.545-1.102.977-1.843 1.294-.741.309-1.611.464-2.612.464-.757 0-1.486-.11-2.185-.33a6.116 6.116 0 0 1-1.868-.989 5.012 5.012 0 0 1-1.331-1.611c-.325-.635-.504-1.363-.537-2.185h3.186c.057.545.204 1.009.44 1.392.236.382.545.675.927.879.391.203.843.305 1.355.305.464 0 .863-.086 1.197-.257a2.32 2.32 0 0 0 .842-.744c.22-.318.383-.692.488-1.123.106-.432.159-.904.159-1.416 0-.497-.061-.948-.183-1.355a2.942 2.942 0 0 0-.562-1.075 2.479 2.479 0 0 0-.952-.695c-.374-.163-.814-.244-1.318-.244-.676 0-1.196.101-1.563.305a4.422 4.422 0 0 0-.952.72ZM526.17 392.911v4.984c-.187.24-.483.501-.887.782-.399.281-.92.524-1.565.729-.644.199-1.435.299-2.373.299-.814 0-1.558-.135-2.232-.404a4.821 4.821 0 0 1-1.74-1.204c-.487-.528-.862-1.172-1.125-1.934-.264-.762-.396-1.632-.396-2.61v-.844c0-.979.123-1.849.369-2.61.252-.762.61-1.407 1.072-1.934a4.644 4.644 0 0 1 1.679-1.204c.656-.275 1.389-.413 2.197-.413 1.084 0 1.975.179 2.672.536.703.357 1.242.85 1.617 1.477.375.621.61 1.335.704 2.144h-2.356a3.218 3.218 0 0 0-.387-1.169 1.989 1.989 0 0 0-.826-.791c-.351-.193-.808-.29-1.371-.29-.474 0-.893.094-1.257.281-.363.188-.668.46-.914.818-.246.357-.433.8-.562 1.327a8.006 8.006 0 0 0-.185 1.81v.862c0 .685.071 1.295.211 1.828.141.527.343.973.607 1.336.269.357.6.63.993.817.398.182.849.273 1.353.273.457 0 .835-.038 1.134-.115.305-.082.548-.178.73-.29.181-.111.322-.219.421-.325v-2.399h-2.54v-1.767h4.957Zm4.571-2.891v9.509h-2.329v-9.509h2.329Zm-2.488-2.488c0-.345.118-.633.352-.861.24-.229.562-.343.967-.343.404 0 .723.114.958.343.24.228.36.516.36.861 0 .34-.12.624-.36.853-.235.228-.554.343-.958.343-.405 0-.727-.115-.967-.343a1.146 1.146 0 0 1-.352-.853Zm9.203 2.488v1.669h-5.45v-1.669h5.45Zm-3.991-2.338h2.329v9.105c0 .281.039.498.115.651.076.152.19.254.342.307.153.053.334.079.545.079.153 0 .293-.009.422-.026a5.3 5.3 0 0 0 .325-.053l.009 1.74a4.28 4.28 0 0 1-.659.159c-.24.041-.513.061-.817.061-.522 0-.979-.088-1.371-.264a1.948 1.948 0 0 1-.914-.87c-.217-.404-.326-.937-.326-1.599v-9.29Zm7.998-1.653v13.5h-2.329v-13.5h2.329Zm7.454 11.479v-4.386c0-.322-.056-.601-.167-.835a1.216 1.216 0 0 0-.51-.545c-.229-.129-.519-.193-.87-.193-.311 0-.583.053-.818.158a1.205 1.205 0 0 0-.527.448 1.162 1.162 0 0 0-.185.651h-2.329c0-.393.094-.765.281-1.117.188-.357.455-.673.8-.949a3.951 3.951 0 0 1 1.257-.659 5.39 5.39 0 0 1 1.652-.237c.721 0 1.363.123 1.925.369.569.24 1.014.603 1.336 1.09.328.486.492 1.098.492 1.837v4.148c0 .475.03.882.088 1.222.065.334.158.624.282.87v.149h-2.365a3.53 3.53 0 0 1-.255-.914 7.235 7.235 0 0 1-.087-1.107Zm.325-3.771.017 1.38h-1.467c-.364 0-.683.038-.959.114-.275.071-.5.176-.676.317a1.287 1.287 0 0 0-.396.492 1.494 1.494 0 0 0-.132.642c0 .234.053.445.159.632.111.188.269.337.474.449.211.105.457.158.738.158.411 0 .768-.082 1.073-.246.304-.17.542-.375.712-.615.17-.241.26-.469.272-.686l.668 1.002c-.082.24-.205.495-.369.765a3.439 3.439 0 0 1-.633.755 3.228 3.228 0 0 1-.931.581c-.364.152-.786.228-1.266.228-.615 0-1.166-.123-1.652-.369a2.922 2.922 0 0 1-1.152-1.011 2.598 2.598 0 0 1-.422-1.459c0-.504.094-.949.282-1.336.187-.386.465-.712.835-.975.369-.27.826-.472 1.371-.607.55-.14 1.18-.211 1.889-.211h1.565Zm4.095-7.708h2.33v11.4l-.229 2.1h-2.101v-13.5Zm8.447 8.649v.184c0 .709-.079 1.36-.238 1.951a4.56 4.56 0 0 1-.694 1.539c-.31.427-.697.761-1.16 1.002-.457.234-.993.351-1.609.351-.585 0-1.095-.114-1.529-.343a3.087 3.087 0 0 1-1.081-.966 5.366 5.366 0 0 1-.703-1.486 11.317 11.317 0 0 1-.395-1.881v-.501c.087-.685.219-1.312.395-1.881.176-.568.41-1.063.703-1.485a3.056 3.056 0 0 1 1.081-.975c.428-.229.932-.343 1.512-.343.621 0 1.163.12 1.626.36.469.234.855.568 1.16 1.002.311.428.542.938.694 1.529.159.586.238 1.234.238 1.943Zm-2.329.184v-.184c0-.405-.033-.785-.097-1.143a3.27 3.27 0 0 0-.316-.958 1.69 1.69 0 0 0-.598-.65c-.252-.158-.569-.238-.949-.238-.364 0-.674.062-.932.185a1.79 1.79 0 0 0-.633.51 2.542 2.542 0 0 0-.387.764c-.087.293-.146.61-.175.95v1.371c.041.451.137.858.29 1.221.152.358.378.642.676.853.305.211.698.316 1.178.316.375 0 .689-.073.941-.219a1.64 1.64 0 0 0 .597-.633c.147-.276.249-.595.308-.958.064-.363.097-.759.097-1.187Zm11.68.457h2.417c-.064.856-.302 1.615-.712 2.277a4.26 4.26 0 0 1-1.714 1.547c-.732.375-1.62.562-2.663.562-.802 0-1.526-.141-2.171-.422a4.703 4.703 0 0 1-1.643-1.221 5.59 5.59 0 0 1-1.037-1.916c-.24-.75-.361-1.591-.361-2.523v-.976c0-.931.124-1.772.37-2.522.246-.75.597-1.389 1.054-1.916a4.72 4.72 0 0 1 1.661-1.23c.651-.288 1.377-.431 2.18-.431 1.043 0 1.925.193 2.646.58.72.381 1.28.905 1.678 1.573.399.668.639 1.436.721 2.303h-2.417c-.047-.539-.164-.996-.352-1.371a1.85 1.85 0 0 0-.826-.853c-.363-.199-.846-.299-1.45-.299-.469 0-.882.088-1.239.264-.352.176-.645.44-.879.791-.234.346-.41.779-.527 1.301-.118.516-.176 1.113-.176 1.793v.993c0 .65.053 1.233.158 1.749.105.516.27.952.492 1.31.223.357.51.63.862.817.351.188.77.281 1.256.281.592 0 1.073-.093 1.442-.281.375-.187.659-.463.852-.826.2-.363.326-.815.378-1.354Zm6.865-8.587v12.797h-2.417v-12.797H578ZM544.678 13.989h2.685c-.071.95-.335 1.793-.791 2.53-.455.728-1.09 1.301-1.904 1.718-.814.417-1.8.625-2.959.625-.892 0-1.696-.156-2.412-.469a5.217 5.217 0 0 1-1.826-1.357c-.502-.593-.886-1.302-1.153-2.13-.267-.833-.4-1.767-.4-2.802V11.02c0-1.035.137-1.97.41-2.803.274-.833.664-1.543 1.172-2.129a5.238 5.238 0 0 1 1.846-1.367c.722-.319 1.53-.478 2.422-.478 1.158 0 2.138.215 2.939.644a4.643 4.643 0 0 1 1.865 1.748c.443.742.71 1.595.801 2.559h-2.685c-.053-.6-.183-1.107-.391-1.524a2.056 2.056 0 0 0-.918-.947c-.404-.221-.941-.332-1.611-.332-.521 0-.98.098-1.377.293a2.515 2.515 0 0 0-.977.879c-.26.384-.456.866-.586 1.445-.13.573-.195 1.237-.195 1.993v1.103c0 .723.058 1.37.176 1.943.117.573.299 1.058.546 1.455.248.398.567.7.957.909.391.208.857.312 1.397.312.658 0 1.191-.104 1.602-.312a2.13 2.13 0 0 0 .947-.918c.221-.404.361-.905.42-1.504Zm12.207.986c0-.273-.043-.518-.127-.732a1.355 1.355 0 0 0-.44-.596c-.208-.182-.504-.358-.888-.527a12.404 12.404 0 0 0-1.465-.547 16.242 16.242 0 0 1-1.856-.703 7.272 7.272 0 0 1-1.513-.909 3.868 3.868 0 0 1-1.006-1.191c-.241-.456-.361-.983-.361-1.582 0-.586.123-1.12.371-1.602a3.682 3.682 0 0 1 1.074-1.24 5.102 5.102 0 0 1 1.631-.81 7.273 7.273 0 0 1 2.09-.284c1.054 0 1.966.192 2.734.577.775.384 1.374.905 1.797 1.562a4.01 4.01 0 0 1 .635 2.217h-2.676c0-.443-.095-.833-.283-1.172a1.933 1.933 0 0 0-.84-.8c-.371-.196-.84-.294-1.407-.294-.546 0-1.002.082-1.367.244-.358.163-.628.385-.81.664-.176.28-.264.593-.264.938 0 .26.062.495.186.703.123.202.309.394.556.576.248.176.554.342.918.498.371.15.801.3 1.289.45a13.55 13.55 0 0 1 2.051.78c.593.287 1.084.613 1.475.977.397.365.693.775.888 1.23.202.457.303.974.303 1.554 0 .612-.12 1.158-.361 1.64a3.475 3.475 0 0 1-1.035 1.23c-.45.34-.99.596-1.622.772-.624.176-1.324.264-2.099.264-.69 0-1.374-.091-2.051-.274a6.244 6.244 0 0 1-1.826-.84 4.29 4.29 0 0 1-1.309-1.425c-.325-.58-.488-1.257-.488-2.032h2.695c0 .45.072.834.215 1.153.15.312.358.57.625.771.274.196.593.339.957.43.365.091.759.137 1.182.137.547 0 .996-.075 1.348-.225.358-.156.625-.371.8-.644.183-.274.274-.586.274-.938Zm12.207 0c0-.273-.043-.518-.127-.732a1.355 1.355 0 0 0-.44-.596c-.208-.182-.504-.358-.888-.527a12.404 12.404 0 0 0-1.465-.547 16.242 16.242 0 0 1-1.856-.703 7.272 7.272 0 0 1-1.513-.909 3.868 3.868 0 0 1-1.006-1.191c-.241-.456-.361-.983-.361-1.582 0-.586.123-1.12.371-1.602a3.682 3.682 0 0 1 1.074-1.24 5.102 5.102 0 0 1 1.631-.81 7.273 7.273 0 0 1 2.09-.284c1.054 0 1.966.192 2.734.577.775.384 1.374.905 1.797 1.562a4.01 4.01 0 0 1 .635 2.217h-2.676c0-.443-.095-.833-.283-1.172a1.933 1.933 0 0 0-.84-.8c-.371-.196-.84-.294-1.407-.294-.546 0-1.002.082-1.367.244-.358.163-.628.385-.81.664-.176.28-.264.593-.264.938 0 .26.062.495.186.703.123.202.309.394.556.576.248.176.554.342.918.498.371.15.801.3 1.289.45a13.55 13.55 0 0 1 2.051.78c.593.287 1.084.613 1.475.977.397.365.693.775.888 1.23.202.457.303.974.303 1.554 0 .612-.12 1.158-.361 1.64a3.475 3.475 0 0 1-1.035 1.23c-.45.34-.99.596-1.621.772-.625.176-1.325.264-2.1.264-.69 0-1.374-.091-2.051-.274a6.244 6.244 0 0 1-1.826-.84 4.29 4.29 0 0 1-1.309-1.425c-.325-.58-.488-1.257-.488-2.032h2.695c0 .45.072.834.215 1.153.15.312.358.57.625.771.274.196.593.339.957.43.365.091.759.137 1.182.137.547 0 .996-.075 1.348-.225.358-.156.625-.371.8-.644.183-.274.274-.586.274-.938Zm7.256-4.56h1.455c.514 0 .937-.088 1.269-.264a1.76 1.76 0 0 0 .752-.742c.169-.32.254-.687.254-1.104 0-.41-.075-.765-.224-1.064a1.555 1.555 0 0 0-.684-.703c-.3-.17-.684-.254-1.152-.254-.378 0-.726.075-1.045.224-.313.15-.563.365-.752.645-.183.273-.274.602-.274.986h-2.588c0-.768.202-1.442.606-2.021.41-.586.963-1.045 1.66-1.377.697-.332 1.475-.498 2.334-.498.937 0 1.758.156 2.461.468.71.306 1.26.759 1.65 1.358.397.599.596 1.341.596 2.226 0 .424-.101.847-.303 1.27a3.475 3.475 0 0 1-.869 1.133 4.475 4.475 0 0 1-1.396.81c-.547.202-1.175.303-1.885.303h-1.865v-1.396Zm0 1.992V11.03h1.865c.801 0 1.494.094 2.08.283.592.182 1.081.443 1.465.781.384.332.667.72.849 1.162.189.443.284.918.284 1.426 0 .664-.124 1.257-.371 1.777a3.72 3.72 0 0 1-1.045 1.31 4.71 4.71 0 0 1-1.563.82 6.645 6.645 0 0 1-1.943.273 6.44 6.44 0 0 1-1.768-.244 5.03 5.03 0 0 1-1.533-.752 3.71 3.71 0 0 1-1.084-1.27c-.267-.514-.4-1.11-.4-1.787h2.587c0 .39.095.739.284 1.045.195.306.462.547.8.723.346.169.733.254 1.163.254.475 0 .882-.085 1.22-.254.345-.176.609-.424.791-.743.183-.325.274-.712.274-1.162 0-.534-.101-.966-.303-1.299a1.788 1.788 0 0 0-.869-.732c-.371-.156-.814-.234-1.328-.234h-1.455ZM282.761 299.548v17.773h-3.357v-17.773h3.357Zm7.165 7.678v2.649h-8.044v-2.649h8.044Zm.94-7.678v2.649h-8.984v-2.649h8.984Zm5.457 4.565v13.208h-3.235v-13.208h3.235Zm-3.455-3.455c0-.48.163-.878.488-1.196.334-.317.782-.476 1.343-.476.562 0 1.005.159 1.331.476.333.318.5.716.5 1.196 0 .472-.167.867-.5 1.185-.326.317-.769.476-1.331.476-.561 0-1.009-.159-1.343-.476a1.591 1.591 0 0 1-.488-1.185Zm9.754 6.153v10.51h-3.223v-13.208h3.052l.171 2.698Zm4.016-2.783-.049 3.003a5.796 5.796 0 0 0-.61-.074 8.618 8.618 0 0 0-.623-.024c-.496 0-.932.069-1.306.207a2.445 2.445 0 0 0-.94.574 2.547 2.547 0 0 0-.562.928c-.13.358-.203.765-.219 1.221l-.696-.086c0-.838.085-1.615.256-2.331.171-.717.419-1.343.745-1.88a3.578 3.578 0 0 1 1.22-1.245c.497-.302 1.067-.452 1.709-.452.18 0 .371.016.574.049.212.024.379.061.501.11Zm7.458 13.537c-1.001 0-1.9-.163-2.698-.488a5.925 5.925 0 0 1-2.038-1.355 6.222 6.222 0 0 1-1.282-2.039 7.099 7.099 0 0 1-.439-2.514v-.489c0-1.017.146-1.94.439-2.771.293-.838.708-1.558 1.245-2.16a5.487 5.487 0 0 1 1.929-1.392c.749-.325 1.575-.488 2.478-.488.936 0 1.762.159 2.478.476a4.794 4.794 0 0 1 1.794 1.318c.481.57.843 1.254 1.087 2.051.244.789.366 1.664.366 2.625v1.355h-10.351v-2.222h7.177v-.244a3.884 3.884 0 0 0-.293-1.404 2.238 2.238 0 0 0-.83-1.025c-.374-.261-.858-.391-1.452-.391-.481 0-.9.106-1.258.317-.35.204-.643.497-.879.879a4.363 4.363 0 0 0-.512 1.343 8.124 8.124 0 0 0-.171 1.733v.489c0 .553.073 1.066.219 1.538.155.472.379.883.672 1.233.301.341.659.61 1.074.805.423.188.903.281 1.441.281.675 0 1.285-.13 1.831-.391a4.073 4.073 0 0 0 1.44-1.184l1.624 1.685a5.39 5.39 0 0 1-1.124 1.172c-.463.374-1.025.679-1.684.915-.659.228-1.42.342-2.283.342Zm7.508-18.994h3.234v15.833l-.317 2.917h-2.917v-18.75Zm11.73 12.012v.256c0 .985-.109 1.888-.329 2.71-.212.822-.533 1.534-.964 2.136a4.58 4.58 0 0 1-1.612 1.392c-.635.325-1.379.488-2.234.488-.813 0-1.521-.159-2.124-.476a4.295 4.295 0 0 1-1.501-1.343c-.407-.586-.733-1.273-.977-2.063a15.88 15.88 0 0 1-.549-2.612v-.696c.122-.952.305-1.823.549-2.612.244-.789.57-1.477.977-2.063a4.254 4.254 0 0 1 1.501-1.355c.594-.317 1.294-.476 2.1-.476.863 0 1.615.167 2.258.5a4.3 4.3 0 0 1 1.612 1.392c.431.594.752 1.302.964 2.124.22.814.329 1.713.329 2.698Zm-3.234.256v-.256c0-.562-.045-1.091-.135-1.587a4.49 4.49 0 0 0-.439-1.331 2.35 2.35 0 0 0-.83-.903c-.35-.22-.79-.33-1.319-.33-.504 0-.935.086-1.294.257a2.496 2.496 0 0 0-.878.708 3.536 3.536 0 0 0-.538 1.062 6.559 6.559 0 0 0-.244 1.318v1.904c.057.627.192 1.193.403 1.697.212.497.525.891.94 1.184.423.293.969.44 1.636.44.521 0 .956-.102 1.306-.305.35-.212.627-.505.83-.879a4.24 4.24 0 0 0 .427-1.331c.09-.504.135-1.054.135-1.648Zm12.854 3.674v-6.091c0-.447-.078-.834-.232-1.16a1.68 1.68 0 0 0-.708-.756c-.318-.179-.721-.269-1.209-.269-.431 0-.81.073-1.135.22a1.669 1.669 0 0 0-.732.622 1.612 1.612 0 0 0-.257.904h-3.235c0-.546.13-1.062.391-1.551.26-.496.631-.935 1.111-1.318a5.471 5.471 0 0 1 1.745-.916c.684-.219 1.449-.329 2.295-.329 1.001 0 1.892.171 2.674.513.789.333 1.407.838 1.855 1.513.456.676.684 1.526.684 2.552v5.761c0 .659.04 1.225.122 1.697.089.464.219.867.39 1.209v.207h-3.283c-.155-.334-.273-.757-.354-1.269a9.886 9.886 0 0 1-.122-1.539Zm.451-5.236.025 1.916h-2.039a5 5 0 0 0-1.33.159c-.383.097-.696.244-.94.439a1.771 1.771 0 0 0-.55.684c-.122.26-.183.557-.183.891 0 .325.073.618.22.879.155.26.374.468.659.622.293.147.635.22 1.025.22.57 0 1.067-.114 1.49-.342.423-.236.753-.52.989-.854.236-.334.362-.651.378-.952l.928 1.391a5.439 5.439 0 0 1-.513 1.062 4.765 4.765 0 0 1-.879 1.05 4.468 4.468 0 0 1-1.294.806c-.504.211-1.09.317-1.758.317-.854 0-1.619-.171-2.295-.513a4.066 4.066 0 0 1-1.599-1.403c-.39-.594-.586-1.27-.586-2.027 0-.7.131-1.318.391-1.855.26-.537.647-.989 1.16-1.355.512-.374 1.147-.655 1.904-.842.765-.196 1.64-.293 2.624-.293h2.173Zm12.964 4.431a1.31 1.31 0 0 0-.22-.745c-.146-.22-.423-.419-.83-.598-.398-.187-.984-.362-1.757-.525a13.003 13.003 0 0 1-1.893-.549 6.116 6.116 0 0 1-1.489-.794 3.591 3.591 0 0 1-.976-1.111c-.228-.431-.342-.927-.342-1.489 0-.545.118-1.058.354-1.538a3.78 3.78 0 0 1 1.025-1.282c.448-.374.993-.667 1.636-.879.643-.219 1.367-.329 2.173-.329 1.123 0 2.087.183 2.893.549.814.366 1.436.871 1.868 1.514.431.635.647 1.351.647 2.148h-3.223c0-.35-.082-.667-.244-.952a1.674 1.674 0 0 0-.72-.683c-.326-.179-.737-.269-1.233-.269-.448 0-.826.073-1.136.22a1.648 1.648 0 0 0-.683.573 1.395 1.395 0 0 0-.232.782c0 .211.041.403.122.573.089.163.232.314.427.452.195.138.46.265.794.379.341.113.76.223 1.257.329.985.195 1.843.456 2.576.781.74.318 1.318.741 1.733 1.27.415.529.623 1.204.623 2.026 0 .586-.127 1.123-.379 1.612a3.73 3.73 0 0 1-1.098 1.257 5.565 5.565 0 0 1-1.722.842c-.667.196-1.42.293-2.258.293-1.213 0-2.238-.215-3.076-.647-.838-.439-1.473-.993-1.904-1.66-.432-.675-.647-1.375-.647-2.1h3.088c.024.513.163.924.415 1.233.252.31.57.533.952.672.391.13.802.195 1.233.195.488 0 .899-.065 1.233-.195.334-.139.586-.322.757-.55.171-.236.256-.504.256-.805Zm11.536 3.857c-1.001 0-1.9-.163-2.698-.488a5.939 5.939 0 0 1-2.039-1.355 6.236 6.236 0 0 1-1.281-2.039 7.099 7.099 0 0 1-.44-2.514v-.489c0-1.017.147-1.94.44-2.771.293-.838.708-1.558 1.245-2.16a5.487 5.487 0 0 1 1.929-1.392c.748-.325 1.574-.488 2.478-.488.935 0 1.761.159 2.478.476a4.794 4.794 0 0 1 1.794 1.318c.48.57.842 1.254 1.086 2.051.245.789.367 1.664.367 2.625v1.355h-10.352v-2.222h7.178v-.244a3.884 3.884 0 0 0-.293-1.404 2.244 2.244 0 0 0-.83-1.025c-.375-.261-.859-.391-1.453-.391-.48 0-.899.106-1.257.317-.35.204-.643.497-.879.879a4.363 4.363 0 0 0-.513 1.343 8.124 8.124 0 0 0-.171 1.733v.489c0 .553.074 1.066.22 1.538.155.472.378.883.671 1.233.302.341.66.61 1.075.805.423.188.903.281 1.44.281.676 0 1.286-.13 1.831-.391a4.067 4.067 0 0 0 1.441-1.184l1.623 1.685a5.384 5.384 0 0 1-1.123 1.172c-.464.374-1.025.679-1.684.915-.66.228-1.421.342-2.283.342Zm439.257 175.191h2.905l4.858 13.379 4.846-13.379h2.918l-6.604 17.773h-2.332l-6.591-17.773Zm-1.465 0h2.844l.513 12.292v5.481h-3.357v-17.773Zm15.6 0h2.857v17.773h-3.357v-5.481l.5-12.292Zm9.9 16.308 3.54-11.743h3.455l-5.298 15.21c-.122.326-.281.68-.476 1.062a4.49 4.49 0 0 1-.757 1.087c-.317.35-.716.634-1.196.854-.472.22-1.046.33-1.721.33-.293 0-.554-.021-.782-.061a10.038 10.038 0 0 1-.72-.159v-2.417c.082.008.175.012.281.012.114.008.212.012.293.012.472 0 .863-.057 1.172-.17.309-.106.557-.281.744-.525.196-.236.358-.546.489-.928l.976-2.564Zm-1.745-11.743 2.99 9.729.525 3.406-2.221.403-4.773-13.538h3.479Zm19.848 8.594c0-.342-.053-.647-.158-.915a1.696 1.696 0 0 0-.55-.745c-.26-.228-.63-.448-1.111-.659a15.395 15.395 0 0 0-1.831-.684c-.83-.26-1.603-.553-2.319-.879a9.096 9.096 0 0 1-1.892-1.135 4.839 4.839 0 0 1-1.257-1.489c-.301-.57-.452-1.229-.452-1.978 0-.732.155-1.4.464-2.002a4.59 4.59 0 0 1 1.343-1.55c.577-.44 1.257-.777 2.038-1.013.79-.236 1.66-.354 2.613-.354 1.318 0 2.457.24 3.417.72.969.48 1.718 1.131 2.247 1.953.529.822.793 1.746.793 2.771H849.3c0-.553-.118-1.042-.354-1.465-.228-.423-.578-.757-1.05-1.001-.463-.244-1.049-.366-1.757-.366-.684 0-1.254.102-1.709.305-.448.204-.786.48-1.013.83-.22.35-.33.741-.33 1.172 0 .326.077.619.232.879.154.252.386.492.696.72.309.22.691.428 1.147.623.464.187 1.001.374 1.611.561.977.293 1.831.619 2.564.977.74.358 1.355.765 1.843 1.221.497.455.867.968 1.111 1.538.252.569.378 1.216.378 1.941 0 .765-.15 1.448-.451 2.05a4.336 4.336 0 0 1-1.294 1.538c-.562.424-1.237.745-2.027.965-.781.22-1.656.329-2.624.329a9.819 9.819 0 0 1-2.564-.341 7.785 7.785 0 0 1-2.282-1.05 5.355 5.355 0 0 1-1.636-1.782c-.407-.725-.61-1.571-.61-2.539h3.369c0 .561.089 1.041.268 1.44.188.391.448.712.782.964.341.244.74.424 1.196.537.456.114.948.171 1.477.171.684 0 1.245-.093 1.685-.28.447-.196.781-.464 1-.806.228-.342.342-.733.342-1.172Zm15.491 2.112 4.736 3.76-2.148 1.867-4.663-3.735 2.075-1.892Zm4.822-6.836v.915c0 1.343-.179 2.552-.537 3.626-.358 1.066-.871 1.973-1.538 2.722a6.657 6.657 0 0 1-2.356 1.721c-.912.399-1.921.598-3.028.598-1.098 0-2.107-.199-3.027-.598a6.755 6.755 0 0 1-2.368-1.721c-.668-.749-1.184-1.656-1.551-2.722-.366-1.074-.549-2.283-.549-3.626v-.915c0-1.351.179-2.559.537-3.626.366-1.066.879-1.973 1.538-2.722a6.713 6.713 0 0 1 2.369-1.733c.919-.399 1.928-.598 3.027-.598 1.107 0 2.116.199 3.027.598.92.399 1.709.976 2.368 1.733.668.749 1.18 1.656 1.538 2.722.367 1.067.55 2.275.55 3.626Zm-3.394.915v-.939c0-.969-.089-1.819-.268-2.552-.179-.74-.448-1.363-.806-1.867a3.41 3.41 0 0 0-1.282-1.136c-.504-.26-1.082-.39-1.733-.39-.643 0-1.217.13-1.721.39a3.41 3.41 0 0 0-1.282 1.136c-.35.504-.619 1.127-.806 1.867-.179.733-.268 1.583-.268 2.552v.939c0 .961.089 1.811.268 2.552.187.74.456 1.367.806 1.88a3.61 3.61 0 0 0 1.294 1.147c.513.26 1.09.391 1.733.391.651 0 1.229-.131 1.734-.391a3.42 3.42 0 0 0 1.269-1.147c.35-.513.615-1.14.794-1.88.179-.741.268-1.591.268-2.552Zm17.554 5.787v2.636h-8.936v-2.636h8.936Zm-7.922-15.137v17.773h-3.357v-17.773h3.357Zm844.159-301.298h-3.84l.03-2.636h3.81c1.03 0 1.9-.228 2.6-.684.7-.464 1.23-1.127 1.58-1.99.36-.87.54-1.912.54-3.125v-.915c0-.936-.1-1.762-.3-2.478-.21-.716-.51-1.318-.91-1.807a3.738 3.738 0 0 0-1.45-1.111c-.58-.252-1.24-.378-1.99-.378h-3.98v-2.649h3.98c1.19 0 2.27.199 3.25.598.98.399 1.83.973 2.55 1.721a7.478 7.478 0 0 1 1.66 2.662c.39 1.033.58 2.189.58 3.466v.891c0 1.27-.19 2.426-.58 3.467a7.465 7.465 0 0 1-1.66 2.661 7.287 7.287 0 0 1-2.57 1.709c-.99.399-2.09.598-3.3.598Zm-1.96-17.773v17.773h-3.35v-17.773h3.35Zm12.11 11.304v-.257c0-.968.14-1.859.42-2.673.27-.822.68-1.534 1.21-2.136a5.409 5.409 0 0 1 1.94-1.404c.76-.342 1.63-.513 2.61-.513.99 0 1.87.171 2.64.513.77.334 1.42.802 1.95 1.404.53.602.93 1.314 1.21 2.136.27.814.41 1.705.41 2.673v.257c0 .96-.14 1.851-.41 2.673a6.374 6.374 0 0 1-1.21 2.136 5.485 5.485 0 0 1-1.94 1.404c-.77.334-1.64.501-2.63.501-.97 0-1.85-.167-2.62-.501a5.434 5.434 0 0 1-1.95-1.404 6.207 6.207 0 0 1-1.21-2.136 8.24 8.24 0 0 1-.42-2.673Zm3.23-.257v.257c0 .578.05 1.119.17 1.623.11.505.29.948.52 1.331.24.382.54.683.92.903.38.212.84.318 1.36.318.53 0 .97-.106 1.35-.318.37-.22.68-.521.91-.903.25-.383.43-.826.54-1.331.11-.504.17-1.045.17-1.623v-.257c0-.569-.06-1.102-.17-1.599a3.94 3.94 0 0 0-.54-1.33 2.47 2.47 0 0 0-.93-.916c-.37-.228-.82-.342-1.35-.342-.52 0-.97.114-1.34.342-.38.22-.68.525-.92.916-.23.382-.41.826-.52 1.33-.12.497-.17 1.03-.17 1.599Zm16.93 4.432c.45 0 .86-.09 1.22-.269a2.1 2.1 0 0 0 .85-.757c.22-.325.34-.704.36-1.135h3.04c-.02.895-.27 1.697-.76 2.405a5.215 5.215 0 0 1-1.95 1.684c-.81.407-1.71.611-2.71.611-1.02 0-1.91-.171-2.67-.513a5.284 5.284 0 0 1-1.89-1.428 6.402 6.402 0 0 1-1.12-2.124 9.027 9.027 0 0 1-.37-2.588v-.391c0-.919.13-1.782.37-2.588.25-.805.63-1.513 1.12-2.124a5.284 5.284 0 0 1 1.89-1.428c.76-.342 1.64-.513 2.65-.513 1.07 0 2.01.208 2.81.623a4.688 4.688 0 0 1 1.91 1.758c.46.757.7 1.648.72 2.673h-3.04a3.057 3.057 0 0 0-.32-1.269c-.2-.375-.47-.676-.83-.904-.36-.228-.79-.342-1.31-.342-.54 0-1 .114-1.36.342-.36.228-.64.541-.85.94-.19.391-.33.83-.41 1.319-.08.48-.11.984-.11 1.513v.391c0 .537.03 1.05.11 1.538s.22.928.41 1.318c.21.383.49.688.85.916.36.228.83.342 1.39.342Zm10.84-16.468v18.762h-3.23v-18.762h3.23Zm8.27 5.554-5.75 6.458-3.11 3.162-1.02-2.503 2.4-3.027 3.59-4.09h3.89Zm-3.29 13.208-4.09-6.152 2.15-2.087 5.67 8.239h-3.73Zm10.69.245c-1 0-1.9-.163-2.7-.489a6.075 6.075 0 0 1-2.04-1.355 6.262 6.262 0 0 1-1.28-2.038 7.172 7.172 0 0 1-.44-2.515v-.488c0-1.017.15-1.941.44-2.771.3-.838.71-1.559 1.25-2.161a5.405 5.405 0 0 1 1.93-1.391c.75-.326 1.57-.489 2.47-.489.94 0 1.77.159 2.48.476.72.31 1.32.749 1.8 1.319.48.569.84 1.253 1.08 2.051.25.789.37 1.664.37 2.624v1.355h-10.35v-2.222h7.18v-.244a3.96 3.96 0 0 0-.3-1.404 2.213 2.213 0 0 0-.83-1.025c-.37-.26-.86-.391-1.45-.391-.48 0-.9.106-1.26.318a2.55 2.55 0 0 0-.88.879c-.22.374-.4.822-.51 1.342a8.397 8.397 0 0 0-.17 1.734v.488c0 .554.07 1.066.22 1.538s.38.883.67 1.233c.3.342.66.611 1.08.806.42.187.9.281 1.44.281.67 0 1.28-.131 1.83-.391a4.137 4.137 0 0 0 1.44-1.184l1.62 1.684c-.28.407-.65.798-1.12 1.172a5.82 5.82 0 0 1-1.69.916c-.66.228-1.42.342-2.28.342Zm10.74-10.755v10.51h-3.22V178.25h3.05l.17 2.698Zm4.02-2.783-.05 3.003a8.126 8.126 0 0 0-1.23-.098c-.5 0-.93.069-1.31.208-.37.13-.69.321-.94.574a2.58 2.58 0 0 0-.56.927c-.13.358-.2.765-.22 1.221l-.7-.085c0-.839.09-1.616.26-2.332a6.66 6.66 0 0 1 .74-1.88 3.63 3.63 0 0 1 1.23-1.245c.49-.301 1.06-.452 1.7-.452.18 0 .37.017.58.049.21.025.38.061.5.11ZM1144.23 478.05l4.43-14.294h3.72l-6.27 17.773h-2.48l.6-3.479Zm-4.09-14.294 4.4 14.294.64 3.479h-2.5l-6.25-17.773h3.71Zm20.54 14.966v-6.092c0-.447-.08-.834-.23-1.159a1.641 1.641 0 0 0-.71-.757c-.32-.179-.72-.269-1.21-.269-.43 0-.81.074-1.13.22a1.649 1.649 0 0 0-.99 1.526h-3.24c0-.545.14-1.062.4-1.55.26-.497.63-.936 1.11-1.319.48-.39 1.07-.696 1.74-.915.69-.22 1.45-.33 2.3-.33 1 0 1.89.171 2.67.513.79.334 1.41.838 1.86 1.514.45.675.68 1.525.68 2.551v5.762c0 .659.04 1.224.12 1.696.09.464.22.867.39 1.209v.207h-3.28c-.16-.333-.27-.757-.36-1.269-.08-.521-.12-1.034-.12-1.538Zm.45-5.237.03 1.916h-2.04c-.5 0-.95.053-1.33.159-.38.098-.7.244-.94.44-.25.187-.43.415-.55.683a2.11 2.11 0 0 0-.18.891c0 .326.07.619.22.879.15.261.37.468.66.623.29.146.63.219 1.02.219.57 0 1.07-.114 1.49-.341.42-.236.75-.521.99-.855.24-.334.36-.651.38-.952l.93 1.392a5.8 5.8 0 0 1-.52 1.062c-.23.374-.52.724-.88 1.049-.35.326-.79.594-1.29.806-.5.212-1.09.317-1.76.317-.85 0-1.62-.17-2.29-.512a4.038 4.038 0 0 1-1.6-1.404 3.614 3.614 0 0 1-.59-2.026c0-.7.13-1.319.39-1.856.26-.537.65-.989 1.16-1.355.51-.374 1.15-.655 1.91-.842.76-.195 1.64-.293 2.62-.293h2.17Zm14.1-5.164h2.93v12.805c0 1.197-.26 2.21-.78 3.04-.51.838-1.23 1.473-2.16 1.904-.93.44-2.01.659-3.23.659a7.6 7.6 0 0 1-1.73-.219 7.008 7.008 0 0 1-1.77-.696 4.436 4.436 0 0 1-1.4-1.209l1.45-1.904c.44.513.94.899 1.49 1.16.56.268 1.15.403 1.8.403.65 0 1.2-.122 1.66-.367a2.4 2.4 0 0 0 1.06-1.049c.25-.456.38-1.018.38-1.685v-9.827l.3-3.015Zm-8.92 6.763v-.256c0-1.009.12-1.925.37-2.747.24-.83.59-1.542 1.05-2.136a4.836 4.836 0 0 1 1.67-1.38c.66-.325 1.4-.488 2.22-.488.87 0 1.6.159 2.2.476.6.318 1.1.769 1.49 1.355.39.586.7 1.282.92 2.088.23.797.41 1.676.53 2.636v.696c-.12.936-.3 1.795-.55 2.576a7.29 7.29 0 0 1-.98 2.051c-.4.577-.91 1.025-1.51 1.342-.6.318-1.31.476-2.12.476-.82 0-1.55-.166-2.2-.5a4.907 4.907 0 0 1-1.67-1.404c-.46-.602-.81-1.31-1.05-2.124-.25-.814-.37-1.701-.37-2.661Zm3.22-.256v.256c0 .57.06 1.103.17 1.599.12.497.29.936.53 1.318.23.375.53.668.89.879.36.212.78.318 1.28.318.67 0 1.21-.139 1.64-.415.43-.285.75-.672.97-1.16a5.13 5.13 0 0 0 .44-1.672v-1.917a5.68 5.68 0 0 0-.27-1.355 3.263 3.263 0 0 0-.55-1.074 2.35 2.35 0 0 0-.9-.708c-.36-.171-.8-.256-1.3-.256-.49 0-.92.109-1.29.329-.36.212-.66.509-.9.891-.24.383-.41.826-.54 1.331-.11.504-.17 1.05-.17 1.636Zm14.76-3.809v10.51h-3.22v-13.208h3.05l.17 2.698Zm4.02-2.783-.05 3.003a8.18 8.18 0 0 0-1.24-.098c-.49 0-.93.069-1.3.208-.38.13-.69.321-.94.573a2.46 2.46 0 0 0-.56.928c-.13.358-.21.765-.22 1.221l-.7-.086c0-.838.09-1.615.26-2.331a6.66 6.66 0 0 1 .74-1.88c.33-.537.74-.952 1.22-1.245.5-.301 1.07-.452 1.71-.452.18 0 .37.016.58.049.21.024.37.061.5.11Zm8.63 10.486v-6.092c0-.447-.08-.834-.23-1.159a1.75 1.75 0 0 0-.71-.757c-.32-.179-.72-.269-1.21-.269-.43 0-.81.074-1.14.22-.31.147-.56.354-.73.623-.17.26-.26.561-.26.903h-3.23c0-.545.13-1.062.39-1.55.26-.497.63-.936 1.11-1.319.49-.39 1.07-.696 1.75-.915.68-.22 1.45-.33 2.29-.33 1 0 1.89.171 2.68.513.78.334 1.4.838 1.85 1.514.46.675.68 1.525.68 2.551v5.762c0 .659.04 1.224.13 1.696.09.464.22.867.39 1.209v.207h-3.29c-.15-.333-.27-.757-.35-1.269-.08-.521-.12-1.034-.12-1.538Zm.45-5.237.02 1.916h-2.04c-.5 0-.94.053-1.33.159-.38.098-.69.244-.94.44-.24.187-.42.415-.55.683a2.11 2.11 0 0 0-.18.891c0 .326.07.619.22.879.16.261.38.468.66.623.29.146.64.219 1.03.219.57 0 1.06-.114 1.49-.341.42-.236.75-.521.98-.855.24-.334.37-.651.38-.952l.93 1.392c-.11.333-.28.687-.51 1.062-.23.374-.52.724-.88 1.049-.36.326-.79.594-1.3.806-.5.212-1.09.317-1.75.317-.86 0-1.62-.17-2.3-.512-.67-.342-1.21-.81-1.6-1.404-.39-.594-.58-1.27-.58-2.026 0-.7.13-1.319.39-1.856.26-.537.64-.989 1.16-1.355.51-.374 1.14-.655 1.9-.842.77-.195 1.64-.293 2.63-.293h2.17Zm8.86-2.344v10.388h-3.22v-13.208h3.03l.19 2.82Zm-.51 3.308h-.95c0-.96.13-1.831.39-2.612.25-.781.6-1.453 1.06-2.014a4.69 4.69 0 0 1 1.65-1.294c.63-.301 1.34-.452 2.12-.452.64 0 1.21.09 1.72.269.51.179.95.464 1.32.854.37.391.66.904.85 1.538.21.627.31 1.4.31 2.32v8.471h-3.25v-8.496c0-.602-.09-1.078-.27-1.428-.17-.35-.42-.598-.75-.745-.33-.146-.73-.219-1.21-.219-.5 0-.93.101-1.31.305-.36.195-.67.468-.92.818-.25.35-.44.752-.57 1.208-.13.456-.19.948-.19 1.477Zm17.56-6.128v2.32h-7.56v-2.32h7.56Zm-5.54-3.247h3.24v12.647c0 .39.05.691.16.903.1.212.26.354.47.427.21.074.47.11.76.11.21 0 .41-.012.58-.036.18-.025.33-.049.46-.074l.01 2.417c-.27.09-.58.163-.92.22-.33.057-.71.085-1.13.085-.73 0-1.36-.122-1.91-.366a2.742 2.742 0 0 1-1.27-1.208c-.3-.562-.45-1.302-.45-2.222v-12.903Zm8.51-164.205v-12.378h3.35v12.378c0 1.18-.25 2.193-.76 3.04a5.197 5.197 0 0 1-2.1 1.928c-.89.448-1.89.672-3.01.672-1.14 0-2.16-.191-3.05-.574a4.63 4.63 0 0 1-2.09-1.782c-.49-.798-.74-1.811-.74-3.04h3.37c0 .668.1 1.205.3 1.612.21.407.5.699.87.879.38.179.83.268 1.34.268.5 0 .94-.114 1.31-.342.38-.236.68-.578.89-1.025.21-.448.32-.993.32-1.636Zm13.72 2.588v-6.091c0-.448-.08-.834-.23-1.16a1.698 1.698 0 0 0-.71-.757c-.32-.179-.72-.268-1.21-.268-.43 0-.81.073-1.13.219-.32.147-.57.354-.74.623-.17.26-.25.561-.25.903h-3.24c0-.545.13-1.062.39-1.55.26-.496.63-.936 1.11-1.318a5.466 5.466 0 0 1 1.75-.916c.68-.22 1.45-.33 2.29-.33 1 0 1.9.171 2.68.513.79.334 1.4.838 1.85 1.514.46.675.69 1.526.69 2.551v5.762c0 .659.04 1.225.12 1.697.09.463.22.866.39 1.208v.208h-3.29a5.012 5.012 0 0 1-.35-1.27c-.08-.521-.12-1.033-.12-1.538Zm.45-5.237.02 1.917h-2.03a5 5 0 0 0-1.33.158c-.39.098-.7.245-.94.44-.25.187-.43.415-.55.683-.13.261-.19.558-.19.892 0 .325.08.618.22.878.16.261.38.468.66.623.3.147.64.22 1.03.22.57 0 1.06-.114 1.49-.342.42-.236.75-.521.99-.855.23-.333.36-.651.37-.952l.93 1.392c-.11.334-.28.688-.51 1.062-.23.374-.52.724-.88 1.05a4.54 4.54 0 0 1-1.29.805c-.51.212-1.09.318-1.76.318-.86 0-1.62-.171-2.3-.513-.67-.342-1.2-.81-1.6-1.404-.39-.594-.58-1.269-.58-2.026 0-.7.13-1.318.39-1.856.26-.537.65-.988 1.16-1.355.51-.374 1.15-.655 1.9-.842.77-.195 1.64-.293 2.63-.293h2.17Zm9.89 5.603 3.07-10.766h3.37l-4.53 13.208h-2.05l.14-2.442Zm-2.25-10.766 3.11 10.791.11 2.417h-2.06l-4.54-13.208h3.38Zm17.47 10.4v-6.091c0-.448-.08-.834-.23-1.16a1.698 1.698 0 0 0-.71-.757c-.32-.179-.72-.268-1.21-.268-.43 0-.81.073-1.13.219-.32.147-.56.354-.74.623-.17.26-.25.561-.25.903h-3.24c0-.545.13-1.062.39-1.55.26-.496.63-.936 1.11-1.318a5.466 5.466 0 0 1 1.75-.916c.68-.22 1.45-.33 2.29-.33 1.01 0 1.9.171 2.68.513.79.334 1.41.838 1.85 1.514.46.675.69 1.526.69 2.551v5.762c0 .659.04 1.225.12 1.697.09.463.22.866.39 1.208v.208h-3.28c-.16-.334-.28-.757-.36-1.27-.08-.521-.12-1.033-.12-1.538Zm.45-5.237.03 1.917h-2.04a5 5 0 0 0-1.33.158c-.39.098-.7.245-.94.44-.25.187-.43.415-.55.683-.12.261-.19.558-.19.892 0 .325.08.618.22.878.16.261.38.468.66.623.3.147.64.22 1.03.22.57 0 1.07-.114 1.49-.342.42-.236.75-.521.99-.855.23-.333.36-.651.38-.952l.92 1.392c-.11.334-.28.688-.51 1.062-.23.374-.52.724-.88 1.05a4.54 4.54 0 0 1-1.29.805c-.51.212-1.09.318-1.76.318-.85 0-1.62-.171-2.29-.513a4.038 4.038 0 0 1-1.6-1.404 3.612 3.612 0 0 1-.59-2.026c0-.7.13-1.318.39-1.856.26-.537.65-.988 1.16-1.355.51-.374 1.15-.655 1.9-.842.77-.195 1.64-.293 2.63-.293h2.17ZM7.37 227.56v-9.902h2.685v9.902c0 .944-.205 1.755-.615 2.432a4.085 4.085 0 0 1-1.68 1.543c-.71.358-1.51.537-2.402.537-.918 0-1.732-.153-2.441-.459a3.683 3.683 0 0 1-1.67-1.426c-.398-.638-.596-1.448-.596-2.431h2.695c0 .533.082.963.244 1.289.163.325.394.56.694.703.306.143.664.215 1.074.215.397 0 .745-.091 1.045-.274.306-.189.543-.462.713-.82.169-.358.254-.794.254-1.309Zm10.976 2.071v-4.873c0-.359-.062-.668-.185-.928a1.343 1.343 0 0 0-.567-.606c-.254-.143-.576-.214-.967-.214-.345 0-.647.058-.908.175a1.344 1.344 0 0 0-.586.498 1.29 1.29 0 0 0-.205.723H12.34c0-.436.104-.85.313-1.24a3.32 3.32 0 0 1 .888-1.055 4.384 4.384 0 0 1 1.397-.732 5.975 5.975 0 0 1 1.836-.264c.8 0 1.514.137 2.139.41a3.254 3.254 0 0 1 1.484 1.211c.365.54.547 1.221.547 2.041v4.609c0 .528.032.98.098 1.358.071.371.175.693.312.967v.166h-2.627a3.902 3.902 0 0 1-.283-1.016 7.966 7.966 0 0 1-.098-1.23Zm.361-4.19.02 1.533h-1.63c-.405 0-.76.043-1.065.127a1.97 1.97 0 0 0-.752.352c-.195.15-.342.332-.44.547a1.66 1.66 0 0 0-.146.713c0 .26.058.494.176.703.123.208.3.374.527.498.234.117.508.176.82.176.456 0 .853-.092 1.192-.274a2.35 2.35 0 0 0 .79-.683c.19-.267.29-.521.303-.762l.743 1.113a4.39 4.39 0 0 1-.41.85 3.853 3.853 0 0 1-.704.84 3.57 3.57 0 0 1-1.035.644c-.404.169-.872.254-1.406.254-.684 0-1.296-.137-1.836-.41a3.26 3.26 0 0 1-1.28-1.123 2.884 2.884 0 0 1-.468-1.621c0-.56.104-1.055.313-1.485a2.85 2.85 0 0 1 .927-1.084c.41-.299.918-.524 1.524-.673.612-.157 1.312-.235 2.1-.235h1.738Zm7.91 4.483 2.462-8.614h2.695l-3.623 10.567h-1.64l.107-1.953Zm-1.796-8.614 2.49 8.633.088 1.934h-1.65l-3.633-10.567h2.705Zm13.974 8.321v-4.873c0-.359-.061-.668-.185-.928a1.343 1.343 0 0 0-.566-.606c-.254-.143-.577-.214-.967-.214-.345 0-.648.058-.908.175-.254.117-.45.284-.586.498a1.29 1.29 0 0 0-.206.723H32.79c0-.436.104-.85.312-1.24.208-.397.505-.749.889-1.055.39-.312.856-.557 1.396-.732a5.976 5.976 0 0 1 1.836-.264c.8 0 1.514.137 2.139.41a3.254 3.254 0 0 1 1.484 1.211c.365.54.547 1.221.547 2.041v4.609c0 .528.033.98.098 1.358.071.371.175.693.312.967v.166h-2.627a3.898 3.898 0 0 1-.283-1.016 7.967 7.967 0 0 1-.098-1.23Zm.362-4.19.02 1.533h-1.632c-.403 0-.758.043-1.064.127a1.97 1.97 0 0 0-.752.352c-.195.15-.342.332-.44.547a1.66 1.66 0 0 0-.146.713c0 .26.059.494.176.703.123.208.3.374.527.498.235.117.508.176.82.176.456 0 .853-.092 1.192-.274a2.34 2.34 0 0 0 .79-.683c.19-.267.29-.521.304-.762l.742 1.113a4.39 4.39 0 0 1-.41.85 3.855 3.855 0 0 1-.703.84 3.59 3.59 0 0 1-1.036.644c-.403.169-.872.254-1.406.254-.683 0-1.295-.137-1.836-.41a3.261 3.261 0 0 1-1.28-1.123 2.884 2.884 0 0 1-.468-1.621c0-.56.104-1.055.313-1.485.208-.429.517-.791.927-1.084.41-.299.918-.524 1.524-.673.612-.157 1.312-.235 2.1-.235h1.738Zm7.295-8.564v15h-2.588v-15h2.588Zm5.195 4.433v10.567h-2.588V221.31h2.588Zm-2.764-2.763c0-.384.13-.703.39-.957.268-.254.626-.381 1.075-.381.45 0 .804.127 1.065.381.267.254.4.573.4.957 0 .377-.134.693-.4.947-.26.254-.616.381-1.065.381-.45 0-.807-.127-1.074-.381a1.27 1.27 0 0 1-.39-.947Zm7.754 5.019v8.311H54.06V221.31h2.422l.156 2.256Zm-.41 2.647h-.762c.007-.769.111-1.465.313-2.09a4.947 4.947 0 0 1 .85-1.612c.37-.449.81-.794 1.318-1.035a3.913 3.913 0 0 1 1.699-.361c.508 0 .967.072 1.377.215a2.6 2.6 0 0 1 1.055.683c.3.313.527.723.683 1.231.163.501.244 1.12.244 1.855v6.778h-2.597v-6.797c0-.482-.072-.863-.215-1.143a1.196 1.196 0 0 0-.606-.595c-.26-.118-.582-.176-.966-.176-.398 0-.746.081-1.045.244-.293.156-.54.374-.742.654a3.22 3.22 0 0 0-.45.967 4.285 4.285 0 0 0-.156 1.182Zm216.099-176.82v17.773h-3.345V49.394h3.345Zm5.518 0v2.649h-14.319v-2.649h14.319Zm5.029 14.6 2.893-10.035h2.051l-.61 3.467-2.918 9.742h-1.77l.354-3.174Zm-1.599-10.035 2.173 10.06.195 3.148h-2.038l-3.467-13.207h3.137Zm9.228 9.913 2.124-9.913h3.125l-3.442 13.209h-2.038l.231-3.296Zm-2.368-9.913 2.869 9.937.378 3.271h-1.77l-2.942-9.74-.598-3.468h2.063Zm12.94 0v13.209h-3.235v-13.21h3.235Zm-3.455-3.454c0-.48.163-.879.488-1.196.334-.318.782-.477 1.343-.477.562 0 1.005.16 1.331.477.333.317.5.716.5 1.196 0 .472-.167.867-.5 1.184-.326.317-.769.476-1.331.476-.561 0-1.009-.159-1.343-.476a1.589 1.589 0 0 1-.488-1.184Zm14.929 3.455h2.93v12.805c0 1.196-.26 2.21-.781 3.04-.513.837-1.233 1.472-2.161 1.903-.928.44-2.006.66-3.235.66a7.501 7.501 0 0 1-1.721-.22 6.974 6.974 0 0 1-1.77-.696 4.396 4.396 0 0 1-1.404-1.208l1.453-1.905c.439.513.936.9 1.489 1.16a4.059 4.059 0 0 0 1.795.403c.651 0 1.204-.122 1.66-.366a2.407 2.407 0 0 0 1.062-1.05c.252-.456.378-1.017.378-1.685v-9.826l.305-3.015Zm-8.923 6.762v-.256c0-1.01.122-1.925.366-2.747.244-.83.594-1.542 1.05-2.136a4.864 4.864 0 0 1 1.672-1.38c.66-.325 1.4-.488 2.222-.488.871 0 1.603.159 2.197.476.603.318 1.099.77 1.49 1.355.398.586.708 1.282.927 2.088.228.797.403 1.676.525 2.636v.696a13.84 13.84 0 0 1-.549 2.576 7.474 7.474 0 0 1-.977 2.05 4.268 4.268 0 0 1-1.513 1.344c-.603.317-1.311.476-2.124.476-.814 0-1.547-.167-2.198-.5a4.935 4.935 0 0 1-1.672-1.405c-.456-.602-.806-1.31-1.05-2.124a9.231 9.231 0 0 1-.366-2.66Zm3.223-.256v.256c0 .57.057 1.103.171 1.6.113.496.288.935.524 1.318.236.374.533.667.892.879.358.211.785.317 1.281.317.668 0 1.213-.138 1.636-.415.431-.285.757-.672.977-1.16a5.34 5.34 0 0 0 .439-1.672V59.67a5.83 5.83 0 0 0-.268-1.355 3.363 3.363 0 0 0-.55-1.074 2.436 2.436 0 0 0-.903-.708c-.366-.17-.802-.256-1.306-.256-.489 0-.916.11-1.282.33a2.559 2.559 0 0 0-.903.89 4.555 4.555 0 0 0-.537 1.331 7.416 7.416 0 0 0-.171 1.636Zm749.162-30.221h-4.54l-.03-2.368h3.9c.66 0 1.22-.094 1.67-.28.45-.188.78-.46 1.01-.819.24-.358.36-.793.36-1.306 0-.57-.11-1.033-.33-1.391-.21-.358-.55-.619-1-.782-.46-.17-1.04-.256-1.74-.256h-2.76v15.124h-3.35V20.393h6.11c1.01 0 1.91.098 2.7.293.8.187 1.47.48 2.03.879.55.399.97.9 1.25 1.501.3.603.44 1.319.44 2.149 0 .732-.17 1.408-.51 2.026-.33.61-.85 1.107-1.55 1.49-.69.382-1.57.602-2.64.659l-1.02.854Zm-.15 7.922h-5.38l1.4-2.636h3.98c.67 0 1.22-.11 1.65-.33.44-.22.76-.52.98-.903.22-.39.33-.838.33-1.343 0-.553-.1-1.033-.3-1.44-.18-.407-.49-.72-.9-.94-.41-.22-.94-.33-1.61-.33h-3.49l.02-2.368h4.44l.77.915c1.03.009 1.86.212 2.51.61.65.4 1.13.912 1.44 1.539.31.627.46 1.302.46 2.026 0 1.14-.25 2.096-.74 2.869-.49.773-1.21 1.355-2.15 1.746-.94.39-2.07.585-3.41.585Zm12.38-18.75v18.75H1065v-18.75h3.24Zm10.35 15.943v-6.091c0-.448-.08-.835-.23-1.16a1.695 1.695 0 0 0-.71-.757c-.32-.179-.72-.268-1.21-.268-.43 0-.81.073-1.13.22a1.64 1.64 0 0 0-.73.622c-.18.26-.26.561-.26.903h-3.24c0-.545.13-1.062.39-1.55a4.31 4.31 0 0 1 1.12-1.319c.48-.39 1.07-.695 1.74-.915.68-.22 1.45-.33 2.3-.33 1 0 1.89.171 2.67.513.79.334 1.41.838 1.85 1.514.46.675.69 1.526.69 2.551v5.762c0 .659.04 1.224.12 1.697.09.463.22.866.39 1.208v.207h-3.28c-.16-.333-.28-.756-.36-1.269-.08-.52-.12-1.034-.12-1.538Zm.45-5.237.03 1.917h-2.04a5 5 0 0 0-1.33.158c-.38.098-.7.244-.94.44-.25.187-.43.415-.55.683-.12.26-.18.558-.18.891 0 .326.07.619.22.88.15.26.37.467.65.622.3.146.64.22 1.03.22.57 0 1.07-.114 1.49-.342.42-.236.75-.521.99-.855.23-.333.36-.65.38-.952l.92 1.392a5.141 5.141 0 0 1-1.39 2.112 4.54 4.54 0 0 1-1.29.805c-.51.212-1.09.318-1.76.318-.85 0-1.62-.171-2.29-.513a4.034 4.034 0 0 1-1.6-1.404 3.613 3.613 0 0 1-.59-2.026c0-.7.13-1.319.39-1.856.26-.537.65-.989 1.16-1.355.51-.374 1.15-.655 1.91-.842.76-.195 1.64-.293 2.62-.293h2.17Zm13.63 5.237V19.416h3.24v18.75h-2.93l-.31-2.807Zm-8.49-3.638v-.256c0-1.01.12-1.925.34-2.747.24-.83.58-1.542 1.03-2.136a4.76 4.76 0 0 1 1.62-1.38c.65-.325 1.37-.488 2.19-.488.79 0 1.47.159 2.06.476.59.318 1.1.77 1.51 1.355.43.586.77 1.282 1.02 2.088.25.797.43 1.676.55 2.637v.695c-.12.936-.3 1.795-.55 2.576a7.086 7.086 0 0 1-1.02 2.05 4.39 4.39 0 0 1-1.51 1.344c-.59.317-1.29.476-2.09.476-.8 0-1.53-.167-2.17-.5a4.74 4.74 0 0 1-1.62-1.405c-.44-.602-.78-1.31-1.02-2.124-.22-.813-.34-1.7-.34-2.66Zm3.24-.256v.256c0 .57.05 1.103.14 1.6.1.496.26.935.48 1.318.22.374.5.667.84.879.35.211.77.317 1.27.317.64 0 1.16-.138 1.56-.415.42-.285.74-.672.97-1.16.23-.496.37-1.054.44-1.672V30.67a5.23 5.23 0 0 0-.26-1.355 3.282 3.282 0 0 0-.56-1.074 2.527 2.527 0 0 0-.88-.708c-.35-.17-.76-.256-1.24-.256-.5 0-.92.11-1.27.33-.35.211-.64.508-.86.89-.22.383-.38.826-.49 1.331-.09.505-.14 1.05-.14 1.636Zm17.34 6.946c-1 0-1.9-.163-2.69-.489a5.893 5.893 0 0 1-2.04-1.355 6.101 6.101 0 0 1-1.28-2.038c-.3-.781-.44-1.62-.44-2.515v-.488c0-1.017.14-1.941.44-2.771.29-.838.7-1.558 1.24-2.16a5.5 5.5 0 0 1 1.93-1.392c.75-.326 1.57-.489 2.48-.489.93 0 1.76.159 2.48.476.71.31 1.31.75 1.79 1.319.48.57.84 1.253 1.09 2.05.24.79.36 1.665.36 2.625v1.355h-10.35v-2.222h7.18v-.244c-.02-.512-.12-.98-.29-1.404a2.277 2.277 0 0 0-.83-1.025c-.38-.26-.86-.39-1.46-.39-.48 0-.9.105-1.25.317-.35.203-.65.496-.88.879-.23.374-.4.822-.52 1.343a8.39 8.39 0 0 0-.17 1.733v.488c0 .553.08 1.066.22 1.538.16.472.38.883.67 1.233.3.342.66.61 1.08.806.42.187.9.28 1.44.28.67 0 1.28-.13 1.83-.39a4.135 4.135 0 0 0 1.44-1.184l1.62 1.684c-.27.407-.65.798-1.12 1.172-.46.375-1.02.68-1.68.916-.66.228-1.42.342-2.29.342Zm318.55 38.055 4.08-13.151h3.42l-5.77 16.352h-2.28l.55-3.201Zm-3.76-13.151 4.05 13.15.59 3.201h-2.31l-5.75-16.351h3.42Zm19.64 13.465v-9.265h2.99v12.151h-2.81l-.18-2.886Zm.38-2.515.92-.023c0 .816-.09 1.569-.27 2.257a5.141 5.141 0 0 1-.84 1.797 3.91 3.91 0 0 1-1.42 1.18c-.58.277-1.26.415-2.05.415-.6 0-1.14-.082-1.64-.247a3.373 3.373 0 0 1-1.28-.797c-.35-.367-.62-.835-.82-1.404-.19-.577-.29-1.27-.29-2.078v-7.85h2.96v7.873c0 .404.05.74.14 1.01.1.27.23.49.39.663.17.165.37.284.6.36.23.067.48.1.74.1.72 0 1.28-.142 1.69-.426.42-.292.72-.682.9-1.168a4.83 4.83 0 0 0 .27-1.662Zm10.69 5.626c-.92 0-1.74-.15-2.48-.45a5.4 5.4 0 0 1-1.87-1.246 5.606 5.606 0 0 1-1.18-1.875 6.527 6.527 0 0 1-.41-2.314v-.449c0-.936.14-1.785.41-2.55a5.91 5.91 0 0 1 1.14-1.987c.5-.554 1.09-.98 1.78-1.28.69-.3 1.45-.45 2.28-.45.86 0 1.62.146 2.28.438a4.4 4.4 0 0 1 1.65 1.213c.44.525.77 1.153 1 1.887.22.726.33 1.531.33 2.415v1.246h-9.52v-2.044h6.6v-.224c-.01-.472-.1-.903-.27-1.292a1.994 1.994 0 0 0-.76-.943c-.34-.24-.79-.36-1.34-.36-.44 0-.82.098-1.15.292-.32.188-.59.457-.81.81-.21.344-.37.755-.47 1.234a7.15 7.15 0 0 0-.16 1.595v.45c0 .508.07.98.2 1.414.14.435.35.813.62 1.135.28.314.61.561.99.74.39.173.83.26 1.32.26.63 0 1.19-.12 1.69-.36.51-.247.95-.61 1.32-1.09l1.5 1.55c-.26.375-.6.734-1.04 1.078-.42.345-.94.626-1.55.843-.6.21-1.3.314-2.1.314Zm9.25-12.376 2.16 3.863 2.21-3.863h3.22l-3.57 5.952 3.71 6.2h-3.22l-2.32-4.055-2.34 4.055h-3.22l3.7-6.2-3.55-5.952h3.22Zm-50.68 291.241v17.773h-3.35v-17.773h3.35Zm5.51 0v2.649h-14.32v-2.649h14.32Zm5.16-.977v18.75h-3.24v-18.75h3.24Zm-.52 11.67h-.95c0-.919.12-1.766.37-2.539.24-.773.59-1.444 1.03-2.014.45-.578.98-1.025 1.6-1.343a4.552 4.552 0 0 1 2.08-.476c.65 0 1.24.094 1.77.281.54.179 1 .468 1.38.867.38.398.67.919.88 1.562.21.635.31 1.408.31 2.319v8.423h-3.24v-8.447c0-.61-.09-1.09-.27-1.44a1.623 1.623 0 0 0-.77-.769c-.33-.155-.73-.232-1.21-.232-.52 0-.97.101-1.34.305-.38.195-.69.468-.93.818-.24.35-.41.752-.54 1.208a6.28 6.28 0 0 0-.17 1.477Zm14.54-3.43v10.51h-3.22v-13.208h3.05l.17 2.698Zm4.02-2.783-.05 3.003a8.126 8.126 0 0 0-1.23-.098c-.5 0-.94.069-1.31.208-.38.13-.69.321-.94.573-.24.253-.43.562-.56.928-.13.358-.21.765-.22 1.221l-.7-.086c0-.838.09-1.615.26-2.331a6.66 6.66 0 0 1 .74-1.88c.33-.537.74-.952 1.22-1.245.5-.301 1.07-.452 1.71-.452.18 0 .37.016.58.049.21.024.38.061.5.11Zm7.46 13.537c-1.01 0-1.9-.162-2.7-.488a5.882 5.882 0 0 1-2.04-1.355 6.262 6.262 0 0 1-1.28-2.038c-.3-.782-.44-1.62-.44-2.515v-.488c0-1.018.14-1.941.44-2.771.29-.839.71-1.559 1.24-2.161a5.51 5.51 0 0 1 1.93-1.392c.75-.325 1.58-.488 2.48-.488.94 0 1.76.159 2.48.476a4.82 4.82 0 0 1 1.79 1.319c.48.569.84 1.253 1.09 2.05.24.79.36 1.665.36 2.625v1.355H1440v-2.222h7.18v-.244a3.947 3.947 0 0 0-.29-1.404 2.276 2.276 0 0 0-.83-1.025c-.38-.261-.86-.391-1.46-.391-.48 0-.89.106-1.25.318-.35.203-.65.496-.88.878-.23.375-.4.822-.51 1.343-.12.521-.17 1.099-.17 1.734v.488c0 .553.07 1.066.21 1.538.16.472.38.883.68 1.233.3.342.66.61 1.07.806.42.187.9.28 1.44.28.68 0 1.29-.13 1.83-.39a3.965 3.965 0 0 0 1.44-1.184l1.63 1.684c-.28.407-.66.798-1.13 1.172-.46.374-1.02.68-1.68.916-.66.228-1.42.341-2.28.341Zm13.45 0c-1 0-1.9-.162-2.7-.488a5.882 5.882 0 0 1-2.04-1.355 6.262 6.262 0 0 1-1.28-2.038 7.176 7.176 0 0 1-.44-2.515v-.488c0-1.018.15-1.941.44-2.771.29-.839.71-1.559 1.24-2.161a5.51 5.51 0 0 1 1.93-1.392c.75-.325 1.58-.488 2.48-.488.94 0 1.76.159 2.48.476a4.74 4.74 0 0 1 1.79 1.319c.48.569.85 1.253 1.09 2.05.24.79.37 1.665.37 2.625v1.355h-10.35v-2.222h7.17v-.244a3.741 3.741 0 0 0-.29-1.404 2.276 2.276 0 0 0-.83-1.025c-.37-.261-.86-.391-1.45-.391-.48 0-.9.106-1.26.318-.35.203-.64.496-.88.878-.23.375-.4.822-.51 1.343-.12.521-.17 1.099-.17 1.734v.488c0 .553.07 1.066.22 1.538s.38.883.67 1.233c.3.342.66.61 1.07.806.43.187.91.28 1.44.28.68 0 1.29-.13 1.83-.39a3.965 3.965 0 0 0 1.44-1.184l1.63 1.684c-.28.407-.65.798-1.12 1.172-.47.374-1.03.68-1.69.916-.66.228-1.42.341-2.28.341Zm15.01-5.639v-12.378h3.36v12.378c0 1.18-.26 2.193-.77 3.039a5.075 5.075 0 0 1-2.1 1.929c-.89.448-1.89.671-3 .671-1.15 0-2.17-.191-3.05-.573-.89-.391-1.59-.985-2.09-1.783-.5-.797-.75-1.81-.75-3.039h3.37c0 .667.1 1.204.31 1.611.2.407.49.7.86.879.39.179.84.269 1.35.269.49 0 .93-.114 1.3-.342.39-.236.68-.578.9-1.025.21-.448.31-.993.31-1.636Zm15.99.781c0-.342-.05-.647-.16-.915-.09-.277-.28-.525-.54-.745-.26-.228-.64-.448-1.12-.659-.47-.22-1.08-.448-1.83-.684-.83-.26-1.6-.553-2.32-.879a9.377 9.377 0 0 1-1.89-1.135 5.08 5.08 0 0 1-1.26-1.489c-.3-.57-.45-1.229-.45-1.978 0-.732.16-1.4.47-2.002.31-.602.76-1.119 1.34-1.55.58-.44 1.26-.777 2.04-1.013.79-.236 1.66-.354 2.61-.354 1.32 0 2.46.24 3.42.72.97.48 1.72 1.131 2.24 1.953.53.822.8 1.746.8 2.771h-3.35c0-.553-.11-1.042-.35-1.465-.23-.423-.58-.757-1.05-1.001-.46-.244-1.05-.366-1.76-.366-.68 0-1.25.102-1.71.305-.44.204-.78.48-1.01.83-.22.35-.33.741-.33 1.172 0 .326.08.619.23.879.16.252.39.492.7.72.31.22.69.428 1.15.623.46.187 1 .374 1.61.561.97.293 1.83.619 2.56.977.74.358 1.36.765 1.84 1.221.5.455.87.968 1.11 1.538.26.569.38 1.216.38 1.941 0 .765-.15 1.448-.45 2.05-.3.603-.73 1.115-1.29 1.538-.56.424-1.24.745-2.03.965-.78.22-1.66.329-2.62.329-.87 0-1.72-.113-2.57-.341a7.714 7.714 0 0 1-2.28-1.05 5.44 5.44 0 0 1-1.64-1.782c-.4-.725-.61-1.571-.61-2.539h3.37c0 .561.09 1.041.27 1.44.19.391.45.712.78.964.34.244.74.424 1.2.537.45.114.95.171 1.48.171.68 0 1.24-.093 1.68-.28.45-.196.78-.464 1-.806.23-.342.34-.733.34-1.172Z" opacity=".5"/>
  <defs>
    <clipPath id="a">
      <path fill="#fff" d="M0 0h140v140H0z" transform="translate(1526.5 97)"/>
    </clipPath>
  </defs>
</svg>
